<svg xmlns="http://www.w3.org/2000/svg" version="1.1" xmlns:xlink="http://www.w3.org/1999/xlink" xmlns:svgjs="http://svgjs.dev/svgjs" width="100%" height="100%" viewBox="0 0 1000 600"><rect width="1000" height="600" x="0" y="0" fill="#fff748"/><g><rect width="333.3333333333333" height="333.3333333333333" rx="13.333333333333334" ry="13.333333333333334" y="281.1104633496143" fill="#3c1a6c" transform="matrix(0.4828338195856541,0,0,0.4828338195856541,0,83.79805961194961)" x="258.88818359375"/><path d="M405.3538453057252 522.7771280764136L313.54480007959455 522.7771280764136L313.54480007959455 372.77712807641365L405.3538453057252 372.77712807641365L405.3538453057252 388.18416325229305L330.91163425044886 388.18416325229305L330.91163425044886 438.98818335279555L392.3287196775845 438.98818335279555L392.3287196775845 454.18416325229305L330.91163425044886 454.18416325229305L330.91163425044886 507.37009290053425L405.3538453057252 507.37009290053425L405.3538453057252 522.7771280764136ZM490.89153374793625 522.7771280764136L433.5749508333634 522.7771280764136L433.5749508333634 372.77712807641365L488.29856892381565 372.77712807641365Q503.04228751678056 372.77712807641365 512.9317347529613 376.66657531259455Q522.8211819891424 380.5861733025443 527.916659376077 389.05853511158955Q533.0121367630117 397.53089692063475 533.0121367630117 410.9781331015393L533.0121367630117 410.9781331015393Q533.0121367630117 420.5359220462629 530.7206794765794 427.1389371216398Q528.4593729439162 433.7721029507855 524.3287196775846 438.1138114934991Q520.1980664112529 442.45552003621265 514.1377649037152 445.5007461668659L514.1377649037152 445.5007461668659Q520.6503277177856 447.6716004382227 525.9568603811022 451.80225370455435Q531.2633930444188 455.90275621711714 534.4292221901474 462.8675803377202Q537.5649005821072 469.80225370455435 537.5649005821072 480.65652506133824L537.5649005821072 480.65652506133824Q537.5649005821072 492.38516827741864 534.308619175072 500.5258717950066Q531.0523377680368 508.66657531259455 524.8714332454238 513.5509974231474Q518.6905287228107 518.4354195337 510.09756389869005 520.6062738050568Q501.5347498283383 522.7771280764136 490.89153374793625 522.7771280764136L490.89153374793625 522.7771280764136ZM450.94178500421765 454.18416325229305L450.94178500421765 507.58114817691614L490.25836791879055 507.58114817691614Q499.3638955569815 507.58114817691614 505.9970613861272 505.19923862917744Q512.6000764615042 502.81732908143874 516.308619175072 496.84747983520765Q519.987011134871 490.87763058897644 519.987011134871 480.02335923219255L519.987011134871 480.02335923219255Q519.987011134871 471.55099742314735 516.8513327429112 466.33491702113724Q513.6855035971826 461.1188366191272 508.9216845017051 458.5258717950066Q504.1277146524589 455.90275621711714 498.9417850042177 455.05853511158955Q493.72570460220766 454.18416325229305 489.38399605949405 454.18416325229305L489.38399605949405 454.18416325229305L450.94178500421765 454.18416325229305ZM450.94178500421765 387.97310797591115L450.94178500421765 438.98818335279555L489.17294078311215 438.98818335279555Q498.489523697685 438.98818335279555 504.24831766753425 436.06356023721764Q510.00711163738345 433.10878636787095 512.7206794765794 427.25954013671515Q515.4342473157755 421.4102939055594 515.4342473157755 412.4856707899815L515.4342473157755 412.4856707899815Q515.4342473157755 399.70175119199155 508.59002621024786 393.8223542070669Q501.7458051047202 387.97310797591115 487.63525234090105 387.97310797591115L487.63525234090105 387.97310797591115L450.94178500421765 387.97310797591115Z " fill="#fff748" transform="matrix(0.4828338195856541,0,0,0.4828338195856541,0,83.79805961194961)"/><path d="M762.7042472447711 520.5161103747189L675.5548480213796 520.5161103747189L675.5548480213796 378.1291609046459L762.7042472447711 378.1291609046459L762.7042472447711 392.7542324984564L692.0402516183167 392.7542324984564L692.0402516183167 440.97976211796856L750.3401945470682 440.97976211796856L750.3401945470682 455.40449026528853L692.0402516183167 455.40449026528853L692.0402516183167 505.8910387809084L762.7042472447711 505.8910387809084L762.7042472447711 520.5161103747189ZM809.4987522464935 522.576785824336L809.4987522464935 522.576785824336Q795.2743675456641 522.576785824336 787.8616600255135 514.534427472358Q780.4489525053631 506.49206912038005 780.4489525053631 491.0370032482515L780.4489525053631 491.0370032482515Q780.4489525053631 480.9625899390122 783.9406525727699 474.5515996513144Q787.4323526401766 468.16922985597245 794.5588552367692 464.763391265633Q801.6567373410061 461.3861731676494 812.1604580355822 460.55617888933136L812.1604580355822 460.55617888933136L843.9005840581574 457.46516571490565L843.9005840581574 448.59281308460965Q843.9005840581574 438.08909239003344 839.2640642965188 433.7673980443086Q834.6275445348803 429.44570369858377 825.5548484580937 429.44570369858377L825.5548484580937 429.44570369858377Q820.4031598340508 429.44570369858377 813.3052777298141 429.8463905915649Q806.2073956255772 430.24707748454597 799.1953749984078 430.87672831637343Q792.1833543712384 431.5063791482009 786.831322300705 432.10740948767256L786.831322300705 432.10740948767256L786.0013280223869 419.9437002364603Q790.9526731999392 418.9133625116517 797.9646938271087 417.8830247868432Q804.9480939619223 416.8526870620346 812.5897654209192 416.1371747531398Q820.2028163875602 415.42166244424493 826.5851861829022 415.42166244424493L826.5851861829022 415.42166244424493Q838.3482085411334 415.42166244424493 845.760916061284 419.0278444810749Q853.1736235814344 422.6340265179049 856.5794621717739 429.96087256098804Q859.9853007621133 437.2590981117154 859.9853007621133 448.59281308460965L859.9853007621133 448.59281308460965L859.9853007621133 500.73935015686556Q860.3859876550944 505.2613879490809 863.5914827989434 507.32206339869805Q866.7683574504364 509.38273884831517 871.7197026279887 510.01238968014263L871.7197026279887 510.01238968014263L871.118672288517 522.576785824336Q868.2280025605819 522.576785824336 865.5376762791373 522.3764423778455Q862.8759704900485 522.1760989313549 860.5004696245176 521.6609300689506Q858.1249687589867 521.1457612065464 855.863949862879 520.5161103747189L855.863949862879 520.5161103747189Q853.1736235814344 519.4857726499104 850.7981227159037 518.0547480321206Q848.4512423427285 516.5951029219751 846.161602954265 514.534427472358L846.161602954265 514.534427472358Q842.2692159938771 516.194416028994 836.173051122093 518.0547480321206Q830.1055067426648 519.8864595428914 823.2079680849185 521.2316226836138Q816.2818089348166 522.576785824336 809.4987522464935 522.576785824336ZM812.1604580355822 509.18239540182464L812.1604580355822 509.18239540182464Q817.741454044962 509.18239540182464 823.7231369473229 508.15205767701605Q829.676199357328 507.1217199522075 835.0568519202171 505.6906953344178Q840.4088839907505 504.23105022427234 843.9005840581574 503.0003690529732L843.9005840581574 503.0003690529732L843.9005840581574 469.39991102727157L814.0207900387088 472.29058075520675Q804.7477505154318 473.12057503352474 800.7408815856206 477.6426128257401Q796.7053921634538 482.1932711103113 796.7053921634538 490.6363163552704L796.7053921634538 490.6363163552704Q796.7053921634538 499.2797050467201 800.6263996161974 504.23105022427234Q804.5474070689412 509.18239540182464 812.1604580355822 509.18239540182464ZM922.6355585289455 522.576785824336L922.6355585289455 522.576785824336Q917.8845567978838 522.576785824336 911.187361586628 521.9471349925086Q904.4901663753724 521.346104653037 897.9074531335398 520.4016284052957Q891.2961193993515 519.4857726499104 886.1444307753086 518.6557783715923L886.1444307753086 518.6557783715923L886.9744250536266 504.8607010560998Q892.1261136776695 505.46173139557146 898.6229654424346 506.29172567388946Q905.1198172071997 507.1217199522075 911.3018435560512 507.6368888146118Q917.4838699049026 508.15205767701605 921.1759134188001 508.15205767701605L921.1759134188001 508.15205767701605Q929.618958663759 508.15205767701605 935.1999546731388 506.60655108980325Q940.7523301901628 505.06104450259033 943.642999918098 501.34038049633716Q946.5336696460331 497.64833698243984 946.5336696460331 490.83665980176096L946.5336696460331 490.83665980176096Q946.5336696460331 485.6849711777181 944.3585122269927 482.794301449783Q942.2119753003083 479.93225221420363 936.3161538750147 478.07192021107704Q930.4489529420771 476.21158820795046 919.3155814156734 474.5515996513144L919.3155814156734 474.5515996513144Q907.7815229962886 472.7198881405436 900.0539900602244 469.9150798896759Q892.32645712416 467.1388921311639 888.6344136102628 461.58651661413995Q884.9137496040096 456.0055206047602 884.9137496040096 445.7021433566745L884.9137496040096 445.7021433566745Q884.9137496040096 434.1680849372897 890.265781674543 427.5853716954572Q895.6178137450763 420.9740379612689 904.1753409594586 418.1978502027569Q912.7328681738409 415.42166244424493 922.005907697118 415.42166244424493L922.005907697118 415.42166244424493Q927.7872471529884 415.42166244424493 934.6847858107345 416.0513132760724Q941.5823244684807 416.65234361554405 948.1650377103133 417.59681986328525Q954.7763714445016 418.51267561867064 959.4987526832076 419.34266989698864L959.4987526832076 419.34266989698864L959.0980657902264 433.13774721248114Q954.1467206126741 432.30775293416315 947.5640073708416 431.5922406252683Q940.9526736366533 430.87672831637343 934.3699603948207 430.36155945396916Q927.7872471529884 429.8463905915649 922.835901975436 429.8463905915649L922.835901975436 429.8463905915649Q916.6538756265845 429.8463905915649 911.7025304490323 431.19155373228716Q906.75118527148 432.5367168730095 903.8605155435448 435.82807349392573Q900.9984663079655 439.119430114842 900.9984663079655 445.10111301720286L900.9984663079655 445.10111301720286Q900.9984663079655 449.62315080941823 903.0591417575827 452.3993385679302Q905.1198172071997 455.204146818798 910.8725361707143 457.0358583295688Q916.6538756265845 458.89619033269537 927.558283214142 460.75652233582196L927.558283214142 460.75652233582196Q940.3516432971817 462.8171977854391 948.0791762332459 465.9082109598648Q955.8067091693101 468.99922413429044 959.2984092367169 474.5515996513144Q962.8187297964796 480.13259566069416 962.8187297964796 490.2356294622893L962.8187297964796 490.2356294622893Q962.8187297964796 502.1703747746552 957.9532460959947 509.2968773712478Q953.1163828878656 516.3947594754846 944.1581687805023 519.4857726499104Q935.1999546731388 522.576785824336 922.6355585289455 522.576785824336ZM1020.2886784469131 522.7771292708265L1020.2886784469131 522.7771292708265Q1009.5846143058463 522.7771292708265 1003.2881059875717 519.4857726499104Q997.0202181616529 516.194416028994 994.3298918802084 508.0375757075929Q991.6681860911195 499.9093558785475 991.6681860911195 485.08394083824646L991.6681860911195 485.08394083824646L991.6681860911195 431.27741520935456L977.0144940049531 431.27741520935456L977.0144940049531 417.48233789386205L991.6681860911195 417.48233789386205L991.6681860911195 385.94255531777753L1007.5239388562292 385.94255531777753L1007.5239388562292 417.48233789386205L1039.8650952182759 417.48233789386205L1039.8650952182759 431.27741520935456L1007.5239388562292 431.27741520935456L1007.5239388562292 480.33293910718476Q1007.5239388562292 491.2659671870979 1008.4397946116145 497.3335115665261Q1009.3842708593558 503.40105594595434 1012.4752840337815 505.8910387809084Q1015.5662972082071 508.35240112350664 1022.1490104500397 508.35240112350664L1022.1490104500397 508.35240112350664Q1024.2096858996567 508.35240112350664 1027.501042520573 508.15205767701605Q1030.821019633845 507.9517142305255 1034.1982377318288 507.6368888146118Q1037.604076322168 507.32206339869805 1040.2944026036128 507.1217199522075L1040.2944026036128 507.1217199522075L1041.3247403284213 520.5161103747189Q1038.4340706004862 520.9167972677 1034.5130631477425 521.4319661301042Q1030.5920556949986 521.9471349925086 1026.7855302116782 522.3764423778455Q1022.9790047283577 522.7771292708265 1020.2886784469131 522.7771292708265ZM1095.302988911448 522.576785824336L1095.302988911448 522.576785824336Q1079.8479230393195 522.576785824336 1070.8897089319562 516.5951029219751Q1061.9314948245928 510.6134200196143 1058.010487371849 498.87901815373897Q1054.0894799191053 487.14461628786364 1054.0894799191053 469.6288749661179L1054.0894799191053 469.6288749661179Q1054.0894799191053 450.0524581947551 1059.4415119896387 438.2035743594566Q1064.8221645525277 426.35469052415806 1074.4958909687862 420.8881764842015Q1084.1696173850441 415.42166244424493 1097.363664361065 415.42166244424493L1097.363664361065 415.42166244424493Q1117.9704188572364 415.42166244424493 1128.4741395518129 426.8698593865623Q1139.0064807387448 438.289435836524 1139.0064807387448 463.6471920637571L1139.0064807387448 463.6471920637571L1138.1764864604268 475.8109013149693L1070.3745400695518 475.8109013149693Q1070.5748835160423 491.86699752656955 1076.3562229719128 500.1096993250381Q1082.108941935427 508.35240112350664 1097.1633209145746 508.35240112350664L1097.1633209145746 508.35240112350664Q1102.944660370445 508.35240112350664 1109.842199028191 508.0375757075929Q1116.7397376859374 507.751370784035 1123.5514148666161 507.32206339869805Q1130.3344715549392 506.9213765057169 1135.0854732860012 506.49206912038005L1135.0854732860012 506.49206912038005L1135.4861601789821 519.0850857569292Q1130.53481500143 519.8864595428914 1123.436932897193 520.7164538212094Q1116.3390507929562 521.5464480995274 1108.89772278045 522.0616169619318Q1101.4850152602994 522.576785824336 1095.302988911448 522.576785824336ZM1070.3745400695518 462.8171977854391L1070.3745400695518 462.8171977854391L1122.9217640347888 462.8171977854391Q1122.9217640347888 443.87043184590374 1116.8542196553606 436.34324235633005Q1110.7580547835767 428.8160528667563 1097.363664361065 428.8160528667563L1097.363664361065 428.8160528667563Q1088.7202756696156 428.8160528667563 1082.7385927672547 432.22189145709575Q1076.7569098648937 435.6277300474352 1073.5800352134006 443.04043756758574Q1070.3745400695518 450.45314508773623 1070.3745400695518 462.8171977854391ZM1178.760344620942 520.5161103747189L1162.9045918558325 520.5161103747189L1162.9045918558325 417.48233789386205L1178.760344620942 417.48233789386205L1178.760344620942 431.27741520935456Q1182.6813520736857 428.6157094202658 1188.6630349760467 425.41021427641687Q1194.6447178784074 422.2333396249238 1201.8570819520673 419.34266989698864Q1209.0694460257273 416.4520001690535 1216.2818100993873 415.2213189977544L1216.2818100993873 415.2213189977544L1216.2818100993873 431.5063791482009Q1209.269789472218 432.9374037659906 1202.0574253985578 435.31290463152146Q1194.8450613248979 437.6884054970523 1188.748896453114 440.3501112861411Q1182.6813520736857 443.04043756758574 1178.760344620942 445.10111301720286L1178.760344620942 445.10111301720286L1178.760344620942 520.5161103747189ZM1250.2829550180702 520.5161103747189L1234.3985817606047 520.5161103747189L1234.3985817606047 417.48233789386205L1250.2829550180702 417.48233789386205L1250.2829550180702 424.69470196752206Q1253.774655085477 422.6340265179049 1259.0408256789428 420.57335106828776Q1264.278375780053 418.51267561867064 1270.2600586824142 416.9671690314578Q1276.241741584775 415.42166244424493 1281.7941171017987 415.42166244424493L1281.7941171017987 415.42166244424493Q1292.5268017352214 415.42166244424493 1299.3098584235445 418.1978502027569Q1306.1215356042235 420.9740379612689 1309.928061087544 427.0702028330529Q1313.7345865708644 433.13774721248114 1315.2800931580773 442.72561215167195Q1316.8255997452902 452.3134770908628 1316.8255997452902 465.9082109598648L1316.8255997452902 465.9082109598648L1316.8255997452902 520.5161103747189L1300.76950353369 520.5161103747189L1300.76950353369 466.5378617916922Q1300.76950353369 453.1434713691808 1299.2239969464772 445.10111301720286Q1297.6784903592643 437.05875466522485 1293.0419705976258 433.4525726283949Q1288.4054508359873 429.8463905915649 1278.9034473738639 429.8463905915649L1278.9034473738639 429.8463905915649Q1273.751758749821 429.8463905915649 1268.31386520222 430.9912102857966Q1262.8473511622635 432.10740948767256 1258.0963494312018 433.853259521376Q1253.3739681924958 435.6277300474352 1250.2829550180702 437.2590981117154L1250.2829550180702 437.2590981117154L1250.2829550180702 520.5161103747189ZM1447.4781473494877 520.5161103747189L1393.0705913811244 520.5161103747189L1393.0705913811244 378.1291609046459L1445.0167850068894 378.1291609046459Q1459.0122057688727 378.1291609046459 1468.399727261573 381.8212044185433Q1477.7586282619172 385.54186842479646 1482.6241119624024 393.58422677677447Q1487.4609751705314 401.6265851287524 1487.4609751705314 414.3913247194364L1487.4609751705314 414.3913247194364Q1487.4609751705314 423.46402079622294 1485.2858177514913 429.7319086221417Q1483.1392808248065 436.02841694041626 1479.2182733720629 440.14976783965056Q1475.2972659193192 444.27111873888487 1469.5159264634487 447.16178846682L1469.5159264634487 447.16178846682Q1475.6979528123002 449.2224639164371 1480.7637799592758 453.1434713691808Q1485.8009866138955 457.0358583295688 1488.8061383112536 463.6471920637571Q1491.7826695162562 470.22990530558957 1491.7826695162562 480.5332825536753L1491.7826695162562 480.5332825536753Q1491.7826695162562 491.66665408007896 1488.6916563418306 499.39418701614323Q1485.6006431674048 507.1217199522075 1479.733442234467 511.758239713846Q1473.8662413015295 516.3947594754846 1465.7094009801283 518.4554349251017Q1457.581181151083 520.5161103747189 1447.4781473494877 520.5161103747189L1447.4781473494877 520.5161103747189ZM1409.5559949780613 455.40449026528853L1409.5559949780613 506.0913822273989L1446.8484965176604 506.0913822273989Q1455.520505701466 506.0913822273989 1461.7883935273846 503.8303633312912Q1468.084901845659 501.56934443518355 1471.576601913066 495.9024869487364Q1475.0969224728287 490.2356294622893 1475.0969224728287 479.93225221420363L1475.0969224728287 479.93225221420363Q1475.0969224728287 471.8898938622257 1472.0917707754702 466.9385486846733Q1469.1152395704676 461.9872035071211 1464.5932017782525 459.52584116452283Q1460.042543493681 457.0358583295688 1455.091198316129 456.2344845436065Q1450.1684736309323 455.40449026528853 1446.047122731698 455.40449026528853L1446.047122731698 455.40449026528853L1409.5559949780613 455.40449026528853ZM1409.5559949780613 392.5538890519659L1409.5559949780613 440.97976211796856L1445.8181587928518 440.97976211796856Q1454.6905114231477 440.97976211796856 1460.1570254631042 438.2035743594566Q1465.623539503061 435.39876610858886 1468.1993838150822 429.8463905915649Q1470.7752281271037 424.29401507454094 1470.7752281271037 415.82234933722606L1470.7752281271037 415.82234933722606Q1470.7752281271037 403.68726057836955 1464.2783763623386 398.1062645689898Q1457.7815245975735 392.5538890519659 1444.387134175062 392.5538890519659L1444.387134175062 392.5538890519659L1409.5559949780613 392.5538890519659ZM1539.8078556892779 522.576785824336L1539.8078556892779 522.576785824336Q1525.5834709884484 522.576785824336 1518.1707634682978 514.534427472358Q1510.7294354557916 506.49206912038005 1510.7294354557916 491.0370032482515L1510.7294354557916 491.0370032482515Q1510.7294354557916 480.9625899390122 1514.249756015554 474.5515996513144Q1517.7414560829611 468.16922985597245 1524.8679586795538 464.763391265633Q1531.9658407837903 461.3861731676494 1542.4695614783666 460.55617888933136L1542.4695614783666 460.55617888933136L1574.2096875009418 457.46516571490565L1574.2096875009418 448.59281308460965Q1574.2096875009418 438.08909239003344 1569.5731677393032 433.7673980443086Q1564.9366479776645 429.44570369858377 1555.863951900878 429.44570369858377L1555.863951900878 429.44570369858377Q1550.712263276835 429.44570369858377 1543.6143811725985 429.8463905915649Q1536.4878785760056 430.24707748454597 1529.504478441192 430.87672831637343Q1522.4924578140228 431.5063791482009 1517.1404257434892 432.10740948767256L1517.1404257434892 432.10740948767256L1516.3104314651714 419.9437002364603Q1521.2617766427238 418.9133625116517 1528.2451767775374 417.8830247868432Q1535.2571974047066 416.8526870620346 1542.8988688637037 416.1371747531398Q1550.5119198303446 415.42166244424493 1556.8942896256867 415.42166244424493L1556.8942896256867 415.42166244424493Q1568.6573119839177 415.42166244424493 1576.0700195040681 419.0278444810749Q1583.4827270242185 422.6340265179049 1586.8885656145585 429.96087256098804Q1590.2944042048978 437.2590981117154 1590.2944042048978 448.59281308460965L1590.2944042048978 448.59281308460965L1590.2944042048978 500.73935015686556Q1590.695091097879 505.2613879490809 1593.9005862417278 507.32206339869805Q1597.0774608932206 509.38273884831517 1602.028806070773 510.01238968014263L1602.028806070773 510.01238968014263L1601.3991552389457 522.576785824336Q1598.5371060033663 522.576785824336 1595.8467797219216 522.3764423778455Q1593.156453440477 522.1760989313549 1590.809573067302 521.6609300689506Q1588.434072201771 521.1457612065464 1586.1730533056634 520.5161103747189L1586.1730533056634 520.5161103747189Q1583.4827270242185 519.4857726499104 1581.1072261586878 518.0547480321206Q1578.731725293157 516.5951029219751 1576.4707063970493 514.534427472358L1576.4707063970493 514.534427472358Q1572.5496989443054 516.194416028994 1566.4821545648774 518.0547480321206Q1560.4146101854494 519.8864595428914 1553.4884510353472 521.2316226836138Q1546.590912377601 522.576785824336 1539.8078556892779 522.576785824336ZM1542.4695614783666 509.18239540182464L1542.4695614783666 509.18239540182464Q1548.0505574877463 509.18239540182464 1554.0036198977514 508.15205767701605Q1559.985302800112 507.1217199522075 1565.3373348706457 505.6906953344178Q1570.7179874335347 504.23105022427234 1574.2096875009418 503.0003690529732L1574.2096875009418 503.0003690529732L1574.2096875009418 469.39991102727157L1544.3298934814934 472.29058075520675Q1535.0568539582162 473.12057503352474 1531.049985028405 477.6426128257401Q1527.0144956062381 482.1932711103113 1527.0144956062381 490.6363163552704L1527.0144956062381 490.6363163552704Q1527.0144956062381 499.2797050467201 1530.9355030589818 504.23105022427234Q1534.8565105117254 509.18239540182464 1542.4695614783666 509.18239540182464ZM1636.6596018212833 520.5161103747189L1620.7752285638178 520.5161103747189L1620.7752285638178 417.48233789386205L1636.6596018212833 417.48233789386205L1636.6596018212833 424.69470196752206Q1640.1513018886899 422.6340265179049 1645.417472482156 420.57335106828776Q1650.6550225832661 418.51267561867064 1656.636705485627 416.9671690314578Q1662.618388387988 415.42166244424493 1668.1707639050119 415.42166244424493L1668.1707639050119 415.42166244424493Q1678.9034485384345 415.42166244424493 1685.6865052267576 418.1978502027569Q1692.4981824074366 420.9740379612689 1696.304707890757 427.0702028330529Q1700.1112333740775 433.13774721248114 1701.6567399612904 442.72561215167195Q1703.2022465485034 452.3134770908628 1703.2022465485034 465.9082109598648L1703.2022465485034 465.9082109598648L1703.2022465485034 520.5161103747189L1687.1461503369032 520.5161103747189L1687.1461503369032 466.5378617916922Q1687.1461503369032 453.1434713691808 1685.60064374969 445.10111301720286Q1684.0551371624774 437.05875466522485 1679.418617400839 433.4525726283949Q1674.7820976392004 429.8463905915649 1665.280094177077 429.8463905915649L1665.280094177077 429.8463905915649Q1660.128405553034 429.8463905915649 1654.6905120054332 430.9912102857966Q1649.2239979654767 432.10740948767256 1644.472996234415 433.853259521376Q1639.750614995709 435.6277300474352 1636.6596018212833 437.2590981117154L1636.6596018212833 437.2590981117154L1636.6596018212833 520.5161103747189ZM1747.5067687152718 520.5161103747189L1731.6510159501622 520.5161103747189L1731.6510159501622 372.77712883411255L1747.5067687152718 372.77712883411255L1747.5067687152718 459.72618461101337L1763.391141972737 459.0965337791859L1792.2405982673772 417.48233789386205L1810.5577133750849 417.48233789386205L1777.38656273472 465.07821668154673L1812.217701931721 520.5161103747189L1793.8719663316574 520.5161103747189L1763.7918288657183 473.12057503352474L1747.5067687152718 473.9505693118428L1747.5067687152718 520.5161103747189Z " fill="#3c1a5b" transform="matrix(0.4828338195856541,0,0,0.4828338195856541,0,83.79805961194961)"/></g></svg>